<?xml version="1.0" standalone="no"?>
<!DOCTYPE svg PUBLIC "-//W3C//DTD SVG 20010904//EN"
 "http://www.w3.org/TR/2001/REC-SVG-20010904/DTD/svg10.dtd">
<svg version="1.0" xmlns="http://www.w3.org/2000/svg"
 width="809.000000pt" height="809.000000pt" viewBox="0 0 809.000000 809.000000"
 preserveAspectRatio="xMidYMid meet">
<metadata>
Created by potrace 1.11, written by Peter Selinger 2001-2013
</metadata>
<g transform="translate(0.000000,809.000000) scale(0.100000,-0.100000)"
fill="#000000" stroke="none">
<path d="M0 5910 l0 -2180 4045 0 4045 0 0 310 0 310 -1865 0 -1865 0 0 315 0
315 1865 0 1865 0 0 310 0 310 -1865 0 -1865 0 0 310 0 310 1865 0 1865 0 0
310 0 310 -1865 0 -1865 0 0 315 0 315 1865 0 1865 0 0 310 0 310 -4045 0
-4045 0 0 -2180z m412 1965 c25 -82 29 -85 109 -85 38 0 69 -4 69 -9 0 -5 -25
-27 -55 -50 -30 -23 -55 -48 -55 -55 0 -7 9 -39 20 -71 11 -32 20 -64 20 -72
0 -8 -25 5 -62 32 -34 25 -69 45 -78 45 -8 0 -40 -19 -70 -41 -64 -46 -69 -40
-41 49 21 70 21 72 -51 122 -27 18 -48 37 -48 42 0 4 29 8 64 8 35 0 72 3 80
6 9 4 25 37 37 76 12 39 26 67 32 65 7 -2 20 -30 29 -62z m723 -5 c10 -30 22
-61 28 -67 6 -8 35 -13 78 -13 38 0 69 -4 69 -9 0 -5 -25 -27 -55 -50 -30 -23
-55 -47 -55 -54 0 -7 9 -41 21 -76 12 -34 19 -65 16 -68 -3 -3 -32 13 -64 36
-33 23 -65 41 -73 41 -8 0 -41 -20 -72 -45 -67 -52 -70 -47 -39 55 l20 62 -26
24 c-15 14 -41 34 -60 45 -18 11 -33 25 -33 30 0 5 30 9 68 9 37 0 73 4 79 8
7 4 22 34 32 65 33 96 38 96 66 7z m719 4 c30 -85 28 -84 107 -84 38 0 69 -4
69 -9 0 -5 -25 -27 -55 -50 -30 -23 -55 -47 -55 -54 0 -7 9 -41 21 -76 12 -34
19 -65 15 -68 -3 -3 -30 13 -60 36 -30 22 -63 41 -72 41 -10 0 -42 -18 -71
-41 -30 -22 -57 -38 -60 -35 -3 3 3 36 14 73 11 38 18 73 16 80 -3 6 -29 28
-59 49 -30 21 -54 41 -54 46 0 4 31 8 69 8 83 0 91 6 116 89 10 34 23 60 29
58 5 -2 19 -30 30 -63z m1441 -4 c10 -30 22 -61 28 -67 6 -8 35 -13 78 -13 38
0 69 -4 69 -10 0 -5 -25 -28 -55 -51 -30 -23 -55 -46 -55 -52 0 -6 10 -41 22
-79 12 -37 19 -70 15 -74 -3 -3 -24 9 -46 28 -22 19 -52 40 -66 48 -27 15 -24
16 -122 -58 -40 -29 -41 -21 -14 68 11 34 17 67 15 74 -3 6 -29 29 -59 50 -30
21 -52 43 -49 48 3 4 36 8 73 8 77 0 84 4 101 70 15 58 30 84 40 74 4 -5 15
-34 25 -64z m720 0 c10 -30 22 -61 28 -67 6 -8 37 -13 86 -14 l76 0 -39 -32
c-22 -18 -50 -41 -64 -52 l-24 -21 22 -72 c12 -40 20 -75 17 -78 -3 -3 -30 13
-61 35 -30 23 -63 41 -73 41 -10 0 -44 -20 -75 -45 -67 -52 -71 -47 -36 55
l21 64 -33 26 c-18 14 -47 37 -64 52 l-31 27 72 1 c84 0 96 8 117 81 26 87 33
87 61 -1z m-1440 -9 c11 -34 27 -66 35 -71 8 -5 43 -10 78 -10 34 0 62 -4 62
-9 0 -5 -25 -27 -55 -50 -30 -23 -55 -46 -55 -52 0 -5 9 -39 21 -75 12 -36 19
-68 15 -71 -3 -3 -33 15 -67 40 -69 51 -65 52 -144 -8 -26 -20 -50 -34 -53
-30 -3 3 5 38 17 78 l24 72 -33 25 c-18 14 -47 37 -64 52 l-31 27 72 1 c47 0
76 5 85 14 8 7 22 41 33 75 10 34 23 60 29 58 5 -2 19 -31 31 -66z m-1856
-453 c12 -36 29 -69 37 -72 9 -3 45 -6 80 -6 35 0 64 -3 64 -7 0 -5 -27 -28
-60 -51 -33 -24 -60 -47 -60 -51 0 -4 11 -40 24 -79 15 -44 21 -72 14 -72 -6
0 -35 18 -64 40 -29 22 -60 40 -69 40 -9 0 -40 -18 -69 -40 -29 -22 -58 -40
-64 -40 -7 0 -1 28 14 72 13 39 24 75 24 79 0 5 -27 27 -60 51 -33 23 -60 46
-60 50 0 4 30 8 68 8 37 0 73 4 79 8 7 4 22 35 33 67 31 90 30 89 39 79 5 -5
18 -39 30 -76z m736 16 c24 -87 32 -94 116 -94 38 0 69 -4 69 -9 0 -4 -27 -27
-60 -50 -33 -23 -60 -43 -60 -44 0 -1 11 -36 24 -77 13 -41 20 -76 16 -78 -5
-2 -34 15 -64 37 -30 23 -61 41 -68 41 -7 0 -38 -18 -71 -41 -32 -23 -61 -39
-64 -36 -3 3 5 39 17 79 l22 73 -32 25 c-18 14 -47 37 -64 52 l-31 27 76 1
c49 0 80 5 86 13 6 6 20 42 32 80 13 37 26 67 30 67 5 0 16 -29 26 -66z m744
-6 c13 -40 29 -76 35 -80 6 -4 41 -8 79 -8 37 0 67 -4 67 -9 0 -6 -25 -27 -55
-48 -62 -43 -65 -52 -35 -138 11 -32 20 -60 20 -62 0 -11 -28 2 -74 37 -29 22
-59 40 -68 40 -8 0 -39 -18 -68 -40 -52 -39 -70 -47 -70 -33 0 4 10 38 22 76
l23 69 -26 22 c-14 11 -43 35 -65 53 l-39 32 76 0 c49 1 80 6 86 14 6 6 20 42
32 80 13 37 26 67 30 67 4 0 18 -33 30 -72z m721 5 c12 -38 26 -74 32 -80 7
-8 38 -13 87 -14 l76 0 -39 -32 c-22 -18 -51 -42 -65 -53 l-26 -22 23 -69 c12
-38 22 -72 22 -76 0 -14 -18 -6 -70 33 -29 22 -60 40 -68 40 -9 0 -39 -18 -68
-40 -46 -34 -74 -48 -74 -37 0 2 11 36 24 75 28 81 29 78 -50 133 -24 16 -44
34 -44 39 0 6 30 10 68 10 37 0 72 4 78 8 6 4 22 40 35 80 12 39 26 72 30 72
4 0 17 -30 29 -67z m719 -15 c12 -36 29 -69 37 -72 9 -3 45 -6 80 -6 35 0 64
-3 64 -7 0 -5 -25 -26 -56 -48 -31 -22 -58 -43 -60 -47 -3 -5 5 -39 17 -78 13
-38 20 -73 16 -76 -3 -4 -31 12 -61 35 -30 22 -62 41 -71 41 -9 0 -40 -18 -69
-40 -29 -22 -58 -40 -64 -40 -7 0 -1 28 14 72 13 39 24 75 24 79 0 5 -27 27
-60 51 -33 23 -60 46 -60 50 0 4 30 8 68 8 37 0 73 4 79 8 7 4 22 35 33 67 31
90 30 89 39 79 5 -5 18 -39 30 -76z m-3227 -453 c25 -82 29 -85 109 -85 38 0
69 -4 69 -9 0 -5 -23 -25 -50 -45 -28 -20 -53 -43 -56 -51 -3 -8 4 -44 16 -80
12 -37 20 -69 17 -72 -3 -3 -32 13 -64 36 -33 23 -65 41 -73 41 -8 0 -40 -19
-70 -41 -65 -47 -72 -38 -41 54 l20 58 -26 25 c-15 13 -41 34 -60 45 -18 11
-33 25 -33 30 0 5 29 9 64 9 35 0 72 3 80 6 9 4 25 37 37 76 12 39 26 67 32
65 7 -2 20 -30 29 -62z m723 -5 c9 -30 24 -61 33 -67 9 -8 44 -13 80 -13 39 0
62 -4 60 -10 -2 -6 -26 -27 -53 -48 -56 -43 -59 -54 -32 -139 9 -29 13 -55 9
-57 -4 -3 -31 13 -59 35 -29 21 -60 39 -70 39 -10 0 -42 -18 -72 -41 -29 -22
-56 -38 -59 -34 -3 3 4 38 15 77 l21 71 -30 26 c-17 14 -45 38 -62 53 l-31 27
70 1 c39 0 76 4 82 8 7 4 22 34 32 65 33 96 38 96 66 7z m720 1 c11 -34 27
-66 35 -71 8 -5 43 -10 78 -10 34 0 62 -4 62 -9 0 -5 -25 -27 -55 -50 -30 -23
-55 -48 -55 -55 0 -7 9 -39 20 -71 11 -32 17 -62 13 -66 -5 -5 -31 10 -60 31
-28 22 -60 40 -69 40 -9 0 -42 -18 -71 -41 -30 -22 -57 -38 -61 -35 -3 4 5 39
17 78 l24 72 -34 26 c-18 14 -47 37 -64 52 l-30 27 72 1 c47 0 76 5 85 14 8 7
22 41 33 75 10 34 23 60 29 58 5 -2 19 -31 31 -66z m1440 -1 c10 -30 22 -61
28 -67 6 -8 35 -13 78 -13 38 0 69 -4 69 -10 0 -5 -25 -28 -55 -51 -30 -23
-55 -47 -55 -54 0 -6 9 -38 20 -71 11 -32 19 -65 18 -72 -2 -8 -25 4 -63 33
-33 24 -65 45 -71 45 -6 0 -35 -18 -64 -40 -79 -59 -81 -57 -50 42 11 34 20
66 20 70 0 4 -25 24 -55 45 -80 55 -78 63 10 63 72 0 75 1 90 30 8 16 15 34
15 40 0 24 31 83 39 74 5 -5 16 -34 26 -64z m720 0 c9 -30 24 -61 33 -67 9 -8
46 -13 86 -14 l71 0 -39 -32 c-22 -18 -50 -41 -64 -52 l-24 -21 21 -68 c11
-37 18 -72 15 -77 -3 -5 -29 9 -59 31 -30 22 -62 40 -71 40 -10 0 -42 -18 -71
-41 -30 -22 -57 -38 -61 -35 -3 4 5 39 17 79 l24 72 -33 25 c-18 14 -47 37
-64 52 l-31 27 72 1 c82 0 97 9 114 73 15 55 29 81 39 71 4 -5 15 -34 25 -64z
m-1440 -9 c11 -34 27 -66 35 -71 8 -5 43 -10 78 -10 34 0 62 -4 62 -9 0 -5
-25 -27 -55 -50 -30 -23 -55 -47 -55 -54 0 -7 9 -38 20 -71 11 -32 17 -62 14
-67 -3 -5 -32 11 -66 36 -68 49 -65 49 -143 -10 -26 -20 -50 -34 -53 -30 -3 3
5 38 17 78 l24 72 -33 25 c-18 14 -47 37 -64 52 l-31 27 72 1 c47 0 76 5 85
14 8 7 22 41 33 75 10 34 23 60 29 58 5 -2 19 -31 31 -66z m-1816 -453 c25
-76 33 -81 118 -77 33 2 58 -2 60 -8 2 -6 -19 -25 -46 -42 -76 -49 -76 -50
-50 -130 13 -39 20 -73 17 -77 -4 -3 -31 13 -62 35 -30 23 -62 41 -71 41 -9 0
-41 -19 -71 -41 -30 -23 -58 -39 -61 -35 -4 3 3 38 16 76 12 39 19 75 16 80
-3 6 -33 28 -66 51 -33 22 -57 44 -55 48 3 4 30 6 60 3 91 -7 101 -1 127 75
34 105 35 105 68 1z m742 4 c12 -37 27 -70 33 -75 6 -4 41 -6 79 -6 37 1 70 0
73 -3 3 -4 -24 -27 -60 -53 -36 -26 -66 -48 -66 -49 0 -2 9 -29 20 -61 20 -57
25 -95 15 -95 -3 0 -30 18 -59 40 -29 22 -59 40 -66 40 -8 0 -40 -18 -73 -41
-32 -23 -61 -39 -64 -36 -3 3 4 36 16 73 12 37 21 71 21 75 0 4 -27 29 -61 54
-33 26 -58 50 -55 53 3 3 37 4 74 3 47 -2 72 2 79 11 6 7 20 43 33 81 12 37
25 65 30 62 5 -3 18 -36 31 -73z m733 21 c31 -100 37 -105 116 -102 38 2 72 1
75 -3 4 -4 -20 -26 -54 -50 -33 -24 -61 -50 -61 -60 0 -9 9 -45 20 -79 10 -35
17 -65 15 -68 -3 -2 -31 15 -64 37 -33 23 -66 42 -73 42 -8 0 -39 -18 -68 -40
-78 -58 -81 -56 -50 35 11 32 20 65 19 74 0 9 -28 36 -62 61 l-62 45 77 3 c44
2 80 8 86 15 5 7 19 42 31 80 13 37 26 67 30 67 4 0 15 -26 25 -57z m727 -10
c30 -94 31 -95 110 -92 37 2 71 1 74 -3 3 -3 -21 -27 -54 -53 -34 -25 -61 -52
-61 -59 0 -7 9 -40 21 -75 12 -34 19 -65 16 -68 -3 -3 -32 13 -64 36 -33 23
-65 41 -71 41 -7 0 -40 -19 -72 -42 -33 -23 -62 -39 -65 -37 -3 3 6 39 20 79
14 40 25 75 25 76 0 1 -30 23 -66 49 -36 26 -63 49 -60 53 3 3 36 4 73 3 38 0
73 2 79 6 6 5 22 41 35 81 12 39 26 72 30 72 4 0 17 -30 30 -67z m718 -15 c25
-76 31 -80 121 -77 33 1 62 0 65 -3 3 -3 -24 -27 -60 -52 -36 -26 -65 -50 -65
-53 0 -4 10 -37 22 -75 12 -37 19 -70 16 -74 -4 -3 -31 13 -62 35 -30 23 -62
41 -71 41 -9 0 -41 -19 -71 -41 -30 -23 -58 -39 -61 -35 -4 3 3 38 16 77 26
80 26 79 -49 130 -27 19 -48 39 -47 44 2 6 28 9 60 7 84 -6 93 0 118 76 12 37
24 71 26 75 9 15 20 -5 42 -75z m-3266 -454 c9 -32 25 -65 34 -71 10 -8 47
-13 87 -14 l71 0 -34 -27 c-18 -15 -48 -39 -65 -53 l-31 -27 24 -72 c12 -39
20 -74 17 -77 -3 -3 -30 13 -60 36 -30 22 -63 41 -73 41 -10 0 -43 -19 -73
-41 -65 -47 -72 -38 -41 54 23 67 23 67 -65 128 l-49 34 65 3 c107 4 107 4
131 83 12 40 26 68 32 66 7 -2 20 -30 30 -63z m722 -3 c11 -34 27 -66 35 -71
8 -5 47 -10 85 -10 l70 -1 -34 -27 c-18 -15 -48 -39 -65 -54 l-31 -26 22 -68
c13 -38 19 -72 15 -76 -4 -4 -30 11 -59 32 -28 22 -60 40 -70 40 -10 0 -42
-18 -72 -41 -29 -22 -56 -38 -59 -34 -3 3 4 38 15 77 l21 71 -24 22 c-14 13
-40 33 -59 46 -19 13 -35 27 -35 32 0 4 31 7 69 7 83 0 91 6 116 89 10 34 23
60 29 58 5 -2 19 -31 31 -66z m720 0 c11 -34 27 -66 35 -71 8 -5 47 -10 85
-10 l70 -1 -39 -32 c-22 -18 -51 -42 -65 -54 l-26 -21 22 -68 c12 -37 20 -71
17 -75 -3 -5 -32 11 -66 36 -68 49 -65 49 -143 -10 -26 -20 -50 -34 -53 -30
-3 3 4 37 17 75 12 39 20 73 17 78 -2 4 -29 25 -60 47 -31 22 -56 43 -56 48 0
4 31 7 69 7 83 0 91 6 116 89 10 34 23 60 29 58 5 -2 19 -31 31 -66z m1440 -1
c10 -30 22 -61 28 -67 6 -8 37 -13 86 -13 l76 -1 -30 -27 c-17 -15 -46 -39
-65 -53 l-35 -26 23 -70 c12 -38 22 -72 22 -76 0 -16 -23 -5 -71 33 -28 22
-57 40 -64 40 -7 0 -37 -18 -66 -40 -78 -58 -80 -57 -49 42 11 34 20 66 20 70
0 4 -27 26 -60 50 -33 23 -60 46 -60 50 0 4 33 8 74 8 79 0 88 5 100 54 13 53
36 100 45 90 5 -5 16 -34 26 -64z m720 0 c9 -30 24 -61 33 -67 9 -8 46 -13 90
-13 l75 0 -67 -50 c-36 -28 -66 -54 -66 -59 0 -5 6 -26 13 -47 37 -106 31
-114 -43 -59 -26 19 -56 35 -65 35 -10 0 -43 -18 -72 -41 -30 -22 -57 -38 -61
-35 -3 4 5 39 17 78 l23 72 -24 20 c-14 12 -42 35 -64 53 l-39 32 72 0 c82 1
97 10 114 74 15 55 29 81 39 71 4 -5 15 -34 25 -64z m-1440 -11 l22 -64 74 -3
c41 -2 78 -7 82 -11 5 -5 -17 -28 -48 -51 -31 -23 -58 -47 -61 -53 -2 -7 5
-41 16 -76 10 -35 17 -68 14 -72 -3 -5 -32 11 -66 36 -68 49 -65 49 -142 -9
-25 -20 -48 -31 -51 -25 -4 5 3 39 16 76 l22 67 -25 20 c-14 12 -42 34 -62 49
-20 16 -34 32 -31 38 4 5 39 9 80 9 l74 0 22 70 c13 39 27 69 33 67 5 -2 19
-32 31 -68z m-1855 -451 l22 -68 78 0 c43 0 81 -4 84 -9 3 -4 -21 -27 -54 -50
-33 -23 -62 -46 -65 -51 -3 -6 4 -41 16 -80 13 -38 20 -72 17 -76 -4 -3 -31
13 -62 35 -30 23 -62 41 -71 41 -9 0 -40 -18 -70 -40 -30 -22 -59 -40 -64 -40
-5 0 1 32 15 72 13 39 24 75 24 79 0 5 -29 29 -65 54 -36 26 -63 51 -59 56 3
5 41 9 84 9 l78 0 23 68 c12 37 24 71 26 75 9 15 20 -5 43 -75z m739 7 l22
-75 79 0 c43 0 81 -4 85 -9 3 -6 -24 -31 -60 -56 -36 -26 -65 -48 -65 -49 0
-1 11 -36 25 -76 14 -40 23 -76 20 -79 -3 -2 -32 14 -65 37 -32 23 -66 42 -75
42 -9 0 -41 -19 -71 -41 -30 -23 -58 -39 -61 -35 -4 3 4 39 16 78 l24 72 -34
29 c-19 15 -46 36 -61 45 -51 30 -36 43 48 41 41 -1 79 2 83 7 5 5 14 27 21
49 18 63 32 95 40 95 4 0 17 -34 29 -75z m741 0 c13 -41 28 -75 34 -76 6 -1
41 0 77 1 37 1 70 -3 73 -8 3 -6 -21 -30 -54 -54 -33 -23 -60 -50 -60 -60 0
-9 9 -45 20 -79 10 -35 17 -65 15 -68 -3 -2 -31 15 -64 37 -33 23 -65 42 -72
42 -7 0 -39 -18 -72 -41 -32 -23 -61 -39 -64 -36 -3 3 4 34 16 68 12 35 21 68
21 75 0 7 -27 34 -60 59 -33 26 -58 51 -54 56 3 6 37 9 75 8 39 -1 74 2 78 7
5 5 18 39 31 77 12 37 25 67 29 67 4 0 18 -34 31 -75z m722 3 l25 -73 74 -3
c41 -2 78 -7 82 -11 5 -5 -19 -30 -52 -55 -34 -26 -61 -53 -61 -60 0 -7 9 -40
21 -75 12 -34 19 -65 16 -68 -3 -3 -32 13 -64 36 -33 23 -65 41 -72 41 -7 0
-39 -19 -72 -42 -33 -22 -61 -39 -64 -36 -3 2 6 38 20 78 14 40 25 74 25 75 0
1 -29 23 -65 49 -36 26 -63 52 -59 57 3 5 40 9 83 9 l77 0 24 75 c13 41 27 75
31 75 4 0 18 -33 31 -72z m718 -10 l22 -68 78 0 c43 0 81 -4 84 -8 3 -5 -24
-30 -59 -56 -36 -26 -65 -50 -65 -54 0 -3 10 -36 22 -74 12 -37 19 -70 16 -74
-4 -3 -31 13 -62 35 -30 23 -62 41 -71 41 -9 0 -41 -18 -71 -41 -31 -22 -58
-38 -62 -35 -3 4 4 37 16 74 12 38 22 71 22 74 0 4 -29 28 -65 54 -35 26 -62
51 -59 56 3 4 41 8 84 8 l78 0 23 68 c12 37 24 71 26 75 9 15 20 -5 43 -75z
m-1790 -445 c12 -38 29 -74 38 -80 9 -8 46 -13 86 -14 l71 0 -34 -27 c-18 -15
-48 -39 -65 -53 l-31 -27 24 -72 c12 -39 20 -74 18 -77 -3 -2 -33 16 -68 41
-69 50 -65 50 -144 -9 -26 -20 -49 -34 -52 -31 -5 5 19 103 34 142 3 7 -22 32
-56 56 -33 24 -61 46 -61 51 0 4 30 7 68 7 37 0 73 4 79 8 7 4 22 35 33 67 28
83 29 85 34 85 2 0 14 -30 26 -67z m-1437 -9 c9 -32 25 -65 34 -71 10 -8 47
-13 87 -13 l71 -1 -35 -27 c-19 -15 -48 -39 -64 -53 l-31 -27 24 -72 c12 -39
20 -74 18 -77 -3 -2 -30 14 -61 36 -30 23 -63 41 -73 41 -9 0 -43 -18 -75 -41
-67 -47 -71 -41 -38 55 l19 57 -25 24 c-13 12 -40 33 -59 46 -19 13 -35 27
-35 32 0 4 29 7 64 7 35 0 71 3 80 6 9 3 25 37 36 76 13 42 26 68 33 65 6 -2
20 -30 30 -63z m722 -3 c11 -34 27 -66 35 -71 8 -5 47 -10 85 -10 l70 -1 -34
-27 c-18 -15 -48 -39 -65 -53 l-31 -27 24 -72 c12 -39 20 -74 18 -77 -3 -2
-30 14 -61 36 -30 23 -63 41 -73 41 -10 0 -42 -18 -71 -40 -29 -22 -55 -40
-57 -40 -10 0 -4 39 15 95 11 31 18 60 16 64 -2 3 -29 24 -60 46 -31 22 -56
43 -56 48 0 4 31 7 69 7 83 0 91 6 116 89 10 34 23 60 29 58 5 -2 19 -31 31
-66z m2160 -1 c10 -30 22 -61 28 -67 6 -8 37 -13 86 -13 l76 -1 -30 -27 c-17
-15 -46 -39 -65 -53 l-35 -26 23 -70 c12 -38 22 -72 22 -76 0 -16 -23 -5 -71
33 -28 22 -56 40 -63 40 -7 0 -39 -18 -70 -41 -32 -23 -60 -38 -64 -35 -3 4 4
38 17 76 12 39 20 73 17 78 -2 4 -29 25 -60 47 -31 22 -56 43 -56 48 0 4 30 7
68 7 37 0 73 4 79 8 7 4 22 34 32 65 33 96 38 96 66 7z m720 0 c9 -30 24 -61
33 -67 9 -8 46 -13 86 -14 l71 0 -39 -32 c-22 -18 -50 -41 -64 -52 l-24 -21
22 -72 c12 -40 20 -75 17 -78 -3 -3 -30 13 -60 35 -29 23 -62 41 -72 41 -10 0
-43 -18 -72 -41 -30 -22 -57 -38 -61 -35 -3 4 5 39 17 78 l24 72 -34 29 c-19
15 -46 36 -61 45 -16 9 -28 20 -28 24 0 4 31 8 69 8 80 0 95 9 112 73 15 55
29 81 39 71 4 -5 15 -34 25 -64z m-1441 -6 c21 -71 37 -85 91 -77 17 3 46 1
65 -4 l34 -9 -56 -42 c-31 -23 -59 -46 -63 -52 -3 -5 3 -39 15 -76 11 -36 20
-68 20 -70 0 -12 -28 1 -77 36 -62 44 -60 44 -137 -14 -25 -20 -48 -31 -51
-25 -4 5 3 39 16 76 l22 67 -25 20 c-14 12 -43 34 -64 51 -38 29 -38 29 -14
36 14 4 51 7 82 8 l57 1 22 70 c13 39 28 70 34 70 5 0 19 -30 29 -66z m-1855
-456 l22 -67 76 -3 c42 -2 78 -7 80 -13 1 -5 -22 -27 -53 -49 -30 -21 -57 -43
-60 -50 -2 -6 7 -44 20 -84 14 -39 21 -72 15 -72 -5 0 -37 20 -70 45 -69 51
-63 52 -150 -17 -20 -15 -42 -28 -47 -28 -6 0 0 31 14 72 13 40 22 78 20 84
-3 7 -30 29 -60 50 -31 22 -54 44 -53 49 2 6 38 11 80 13 l76 3 22 67 c12 37
24 71 26 75 9 15 20 -5 42 -75z m740 7 l22 -74 77 -3 c51 -2 77 -7 77 -15 0
-6 -26 -30 -57 -53 -32 -23 -58 -42 -58 -44 0 -1 11 -36 25 -76 14 -40 23 -76
20 -79 -3 -2 -33 15 -67 39 -34 24 -67 43 -73 43 -6 0 -37 -19 -68 -43 -32
-23 -61 -40 -64 -36 -4 3 3 37 15 74 12 38 22 71 22 75 0 5 -32 30 -120 95
-14 10 33 22 86 21 34 -1 66 1 71 4 6 4 18 35 28 69 28 103 35 103 64 3z m740
5 c12 -38 27 -73 33 -76 6 -4 39 -6 72 -5 94 2 99 -9 27 -60 -34 -24 -61 -50
-61 -60 0 -10 9 -46 20 -81 11 -34 20 -65 20 -67 0 -8 -35 12 -85 50 l-55 41
-65 -47 c-37 -26 -69 -45 -72 -42 -3 3 5 35 17 72 12 36 19 72 17 80 -3 7 -31
32 -63 55 -67 50 -61 61 34 59 35 -1 67 2 71 7 5 5 18 39 31 77 12 37 25 67
29 67 4 0 17 -31 30 -70z m723 -2 l25 -73 59 -3 c69 -3 104 -9 104 -20 0 -4
-27 -25 -60 -47 -33 -22 -60 -47 -60 -55 0 -9 9 -44 21 -79 12 -34 19 -65 16
-68 -3 -3 -35 16 -71 42 l-65 46 -62 -46 c-56 -40 -79 -52 -79 -42 0 2 11 35
24 75 28 81 29 79 -52 137 -29 20 -50 40 -47 44 4 3 41 8 83 11 l77 5 25 73
c14 39 28 72 32 72 3 0 17 -33 30 -72z m717 -10 l22 -67 76 -3 c42 -2 78 -7
80 -13 1 -5 -20 -25 -47 -44 -75 -51 -75 -50 -49 -130 13 -39 20 -73 17 -77
-4 -3 -31 13 -61 35 -29 23 -62 41 -72 41 -10 0 -42 -18 -71 -40 -29 -22 -58
-40 -63 -40 -5 0 1 33 15 72 13 40 22 78 20 84 -3 7 -30 29 -60 50 -31 22 -54
44 -53 49 2 6 38 11 80 13 l76 3 22 67 c12 37 24 71 26 75 9 15 20 -5 42 -75z
m-1789 -445 c12 -38 29 -74 38 -80 9 -8 44 -13 80 -13 35 0 62 -4 60 -9 -1 -5
-27 -27 -55 -50 -29 -23 -53 -47 -53 -54 0 -7 9 -41 21 -76 12 -34 19 -64 16
-67 -3 -3 -33 15 -67 40 -34 25 -65 46 -69 46 -3 0 -33 -21 -66 -46 -69 -52
-75 -47 -46 46 23 72 23 72 -49 121 -27 19 -50 37 -50 42 0 4 26 7 58 7 93 0
98 4 123 79 22 68 28 81 34 81 2 0 13 -30 25 -67z m-1435 -12 c11 -34 27 -66
35 -71 8 -5 44 -10 78 -10 35 0 62 -4 60 -9 -1 -5 -27 -27 -55 -50 -29 -23
-53 -47 -53 -54 0 -7 9 -41 21 -76 12 -34 19 -65 16 -67 -3 -3 -29 12 -59 33
-29 22 -59 43 -65 47 -8 4 -39 -11 -78 -39 -74 -54 -79 -49 -45 49 l19 57 -25
24 c-13 12 -40 33 -59 46 -19 13 -35 27 -35 32 0 4 26 7 58 7 94 0 98 3 122
82 12 40 26 68 32 66 7 -3 21 -32 33 -67z m720 -1 c24 -72 33 -78 118 -79 32
-1 57 -5 55 -10 -1 -5 -27 -27 -55 -50 -29 -23 -53 -47 -53 -54 0 -7 9 -41 21
-76 12 -34 19 -64 16 -67 -3 -3 -33 15 -68 40 -69 51 -70 51 -146 -10 -23 -19
-44 -34 -47 -34 -11 0 -6 37 13 92 11 33 15 60 10 69 -4 8 -31 31 -58 50 -28
18 -51 37 -51 42 0 4 26 7 58 7 94 0 99 4 124 81 12 38 26 68 32 66 5 -2 19
-32 31 -67z m1440 -8 l21 -67 77 -5 c42 -3 79 -9 82 -12 3 -3 -16 -22 -43 -42
-77 -56 -76 -54 -51 -136 12 -39 19 -73 16 -76 -3 -3 -33 15 -67 40 -34 25
-65 46 -69 46 -3 0 -32 -21 -64 -46 -32 -25 -61 -43 -65 -40 -3 4 4 37 16 74
12 38 22 71 22 75 0 3 -28 27 -62 53 -71 55 -66 62 39 63 l61 1 23 68 c34 103
33 103 64 4z m720 8 c10 -30 22 -61 28 -67 6 -8 35 -13 78 -13 38 0 69 -4 69
-9 0 -5 -25 -27 -55 -50 -30 -23 -55 -48 -55 -55 0 -7 9 -39 20 -72 11 -32 19
-64 18 -71 -2 -7 -28 7 -62 33 -33 24 -66 44 -73 44 -8 0 -39 -19 -69 -41 -30
-23 -58 -39 -61 -35 -4 3 3 38 16 76 12 39 20 73 17 78 -2 4 -29 25 -60 47
-31 22 -56 43 -56 48 0 4 30 7 68 7 37 0 73 4 79 8 7 4 22 34 32 65 33 96 38
96 66 7z m719 5 c11 -39 26 -70 37 -75 10 -6 48 -10 86 -11 l68 0 -39 -32
c-22 -18 -50 -41 -64 -52 l-24 -21 22 -72 c12 -40 20 -75 18 -77 -2 -3 -33 15
-68 40 -70 49 -66 49 -145 -10 -26 -20 -50 -34 -53 -30 -3 3 5 38 17 77 l23
72 -24 20 c-14 12 -42 35 -64 53 l-39 32 70 1 c39 0 76 4 82 8 7 4 22 34 32
65 34 99 40 100 65 12z"/>
<path d="M0 2800 l0 -310 4045 0 4045 0 0 310 0 310 -4045 0 -4045 0 0 -310z"/>
<path d="M0 1550 l0 -310 4045 0 4045 0 0 310 0 310 -4045 0 -4045 0 0 -310z"/>
<path d="M0 313 l0 -313 4045 0 4045 0 0 310 0 310 -4045 2 -4045 3 0 -312z"/>
</g>
</svg>
